<svg xmlns="http://www.w3.org/2000/svg" viewBox="0 0 200 200">
  <defs>
    <linearGradient id="bgGrad" x1="0%" y1="0%" x2="100%" y2="100%">
      <stop offset="0%" stop-color="#f7c6e6"/>
      <stop offset="50%" stop-color="#d6b8f5"/>
      <stop offset="100%" stop-color="#9b7bdb"/>
    </linearGradient>
  </defs>

  <rect width="200" height="200" rx="42" fill="url(#bgGrad)"/>

  <!-- Силуэт стройной женской фигуры -->
  <g fill="#ffffff" fill-opacity="0.96">
    <!-- голова -->
    <circle cx="100" cy="44" r="15"/>

    <!-- левая рука -->
    <path d="M84,66 C75,75 69,86 72,97 C74,105 79,112 85,116 C91,110 93,100 91,90 C90,80 88,72 84,66 Z"/>

    <!-- правая рука -->
    <path d="M116,66 C125,75 131,86 128,97 C126,105 121,112 115,116 C109,110 107,100 109,90 C110,80 112,72 116,66 Z"/>

    <!-- торс и бёдра (тонкая талия) -->
    <path d="M85,64 C77,64 73,74 74,86 C75,98 79,108 83,116 C81,118 80,120 80,123 L120,123 C120,120 119,118 117,116 C121,108 125,98 126,86 C127,74 123,64 115,64 Z"/>

    <!-- левая нога -->
    <path d="M84,122 C83,140 82,162 81,180 C81,186 85,189 90,189 C95,189 99,186 99,180 C99,160 100,140 101,123 Z"/>

    <!-- правая нога -->
    <path d="M116,122 C117,140 118,162 119,180 C119,186 115,189 110,189 C105,189 101,186 101,180 C101,160 100,140 99,123 Z"/>
  </g>
</svg>
